<svg xmlns="http://www.w3.org/2000/svg" viewBox="0 0 108 108" width="108" height="108">
  <!-- Foreground: keypad + magnifier, transparent background -->
  <rect x="10" y="10" width="25" height="20" rx="4" fill="#1E1E42"/>
  <rect x="41" y="10" width="25" height="20" rx="4" fill="#1E1E42"/>
  <rect x="72" y="10" width="25" height="20" rx="4" fill="#1E1E42"/>
  <rect x="10" y="36" width="25" height="20" rx="4" fill="#1E1E42"/>
  <rect x="41" y="36" width="25" height="20" rx="4" fill="#1E1E42"/>
  <rect x="72" y="36" width="25" height="20" rx="4" fill="#1E1E42"/>
  <rect x="10" y="62" width="25" height="20" rx="4" fill="#1E1E42"/>
  <rect x="41" y="62" width="25" height="20" rx="4" fill="#1E1E42"/>
  <rect x="72" y="62" width="25" height="20" rx="4" fill="#1E1E42"/>
  <rect x="10" y="88" width="25" height="12" rx="4" fill="#1A1A36"/>
  <rect x="41" y="88" width="25" height="12" rx="4" fill="#1A1A36"/>
  <rect x="72" y="88" width="25" height="12" rx="4" fill="#4444CC"/>
  <circle cx="54" cy="47" r="28" fill="none" stroke="#5C5CFF" stroke-width="7"/>
  <line x1="74" y1="67" x2="90" y2="83" stroke="#5C5CFF" stroke-width="7" stroke-linecap="round"/>
</svg>